<svg xmlns="http://www.w3.org/2000/svg" xmlns:xlink="http://www.w3.org/1999/xlink" width="500" zoomAndPan="magnify" viewBox="0 0 375 374.999991" height="500" preserveAspectRatio="xMidYMid meet" version="1.0"><defs><clipPath id="d1d5f5fb9c"><path d="M 7 164 L 183 164 L 183 330.988281 L 7 330.988281 Z M 7 164 " clip-rule="nonzero"/></clipPath></defs><g clip-path="url(#d1d5f5fb9c)"><path fill="#2e6a47" d="M 124.035156 164.742188 L 46.609375 201.042969 C 45.601562 201.519531 44.605469 202.023438 43.621094 202.546875 C 42.636719 203.074219 41.664062 203.621094 40.707031 204.195312 C 39.75 204.765625 38.808594 205.363281 37.878906 205.980469 C 36.953125 206.601562 36.039062 207.242188 35.144531 207.90625 C 34.246094 208.570312 33.367188 209.253906 32.503906 209.960938 C 31.640625 210.667969 30.792969 211.394531 29.96875 212.144531 C 29.140625 212.890625 28.332031 213.660156 27.539062 214.445312 C 26.75 215.234375 25.980469 216.039062 25.230469 216.863281 C 24.480469 217.691406 23.75 218.535156 23.039062 219.394531 C 22.328125 220.253906 21.640625 221.132812 20.976562 222.027344 C 20.308594 222.921875 19.664062 223.832031 19.042969 224.757812 C 18.421875 225.683594 17.820312 226.625 17.246094 227.582031 C 16.667969 228.535156 16.117188 229.503906 15.589844 230.488281 C 15.058594 231.46875 14.554688 232.464844 14.078125 233.472656 C 13.597656 234.476562 13.140625 235.496094 12.710938 236.527344 C 12.28125 237.554688 11.875 238.59375 11.496094 239.644531 C 11.117188 240.691406 10.765625 241.75 10.4375 242.816406 C 10.109375 243.882812 9.808594 244.957031 9.53125 246.039062 C 9.257812 247.117188 9.007812 248.207031 8.789062 249.300781 C 8.566406 250.390625 8.371094 251.488281 8.203125 252.59375 C 8.035156 253.695312 7.894531 254.800781 7.777344 255.910156 C 7.664062 257.019531 7.578125 258.132812 7.519531 259.246094 C 7.457031 260.359375 7.425781 261.476562 7.421875 262.589844 C 7.414062 263.707031 7.4375 264.820312 7.488281 265.9375 C 7.535156 267.050781 7.613281 268.164062 7.714844 269.273438 C 7.820312 270.382812 7.949219 271.492188 8.109375 272.597656 C 8.265625 273.699219 8.453125 274.800781 8.664062 275.894531 C 8.875 276.992188 9.113281 278.082031 9.378906 279.164062 C 9.644531 280.246094 9.933594 281.324219 10.253906 282.394531 C 10.570312 283.460938 10.914062 284.523438 11.285156 285.578125 C 11.652344 286.628906 12.046875 287.671875 12.46875 288.703125 C 12.890625 289.738281 13.335938 290.761719 13.804688 291.773438 C 14.28125 292.78125 14.78125 293.777344 15.308594 294.761719 C 15.832031 295.746094 16.382812 296.714844 16.953125 297.671875 C 17.527344 298.632812 18.125 299.574219 18.742188 300.5 C 19.359375 301.429688 20.003906 302.34375 20.664062 303.238281 C 21.328125 304.136719 22.015625 305.015625 22.722656 305.878906 C 23.425781 306.742188 24.15625 307.589844 24.902344 308.414062 C 25.652344 309.242188 26.417969 310.050781 27.207031 310.84375 C 27.992188 311.632812 28.800781 312.402344 29.625 313.152344 C 30.449219 313.90625 31.292969 314.636719 32.152344 315.34375 C 33.015625 316.054688 33.890625 316.742188 34.785156 317.410156 C 35.679688 318.074219 36.589844 318.71875 37.519531 319.339844 C 38.445312 319.964844 39.382812 320.5625 40.339844 321.136719 C 41.296875 321.714844 42.265625 322.265625 43.246094 322.796875 C 44.230469 323.324219 45.222656 323.828125 46.230469 324.308594 C 47.238281 324.789062 48.253906 325.242188 49.285156 325.671875 C 50.3125 326.105469 51.355469 326.507812 52.402344 326.886719 C 53.453125 327.265625 54.507812 327.621094 55.574219 327.949219 C 56.640625 328.277344 57.714844 328.578125 58.796875 328.851562 C 59.878906 329.128906 60.964844 329.375 62.058594 329.597656 C 63.152344 329.820312 64.25 330.015625 65.351562 330.183594 C 66.457031 330.351562 67.5625 330.492188 68.671875 330.605469 C 69.78125 330.71875 70.894531 330.808594 72.007812 330.867188 C 73.121094 330.925781 74.234375 330.957031 75.351562 330.964844 C 76.46875 330.96875 77.582031 330.945312 78.695312 330.898438 C 79.8125 330.847656 80.925781 330.769531 82.035156 330.667969 C 83.144531 330.5625 84.253906 330.433594 85.355469 330.273438 C 86.460938 330.117188 87.5625 329.933594 88.65625 329.71875 C 89.75 329.507812 90.839844 329.269531 91.925781 329.003906 C 93.007812 328.738281 94.085938 328.449219 95.15625 328.128906 C 96.222656 327.8125 97.285156 327.46875 98.335938 327.097656 C 99.390625 326.730469 100.433594 326.335938 101.464844 325.914062 C 102.5 325.492188 103.519531 325.046875 104.53125 324.578125 L 181.71875 288.390625 L 182.140625 288.183594 L 124.214844 164.660156 Z M 127.425781 187.683594 L 59.527344 219.519531 C 59.148438 219.695312 58.757812 219.835938 58.351562 219.933594 C 57.949219 220.035156 57.539062 220.09375 57.121094 220.113281 C 56.707031 220.128906 56.292969 220.109375 55.878906 220.046875 C 55.46875 219.980469 55.066406 219.878906 54.675781 219.738281 C 54.28125 219.597656 53.90625 219.417969 53.550781 219.203125 C 53.195312 218.984375 52.863281 218.738281 52.554688 218.457031 C 52.246094 218.175781 51.972656 217.867188 51.722656 217.53125 C 51.476562 217.195312 51.265625 216.839844 51.089844 216.460938 C 50.914062 216.082031 50.773438 215.691406 50.675781 215.289062 C 50.574219 214.882812 50.515625 214.472656 50.496094 214.058594 C 50.480469 213.640625 50.5 213.226562 50.5625 212.816406 C 50.625 212.402344 50.730469 212 50.871094 211.609375 C 51.011719 211.21875 51.191406 210.84375 51.40625 210.488281 C 51.625 210.128906 51.871094 209.796875 52.152344 209.492188 C 52.433594 209.183594 52.742188 208.90625 53.078125 208.660156 C 53.414062 208.414062 53.769531 208.199219 54.148438 208.023438 L 122.046875 176.1875 Z M 127.425781 187.683594 " fill-opacity="1" fill-rule="evenodd"/></g><path fill="#2e6a47" d="M 193.511719 287.960938 L 271.972656 322.449219 C 272.992188 322.894531 274.027344 323.316406 275.070312 323.710938 C 276.113281 324.105469 277.164062 324.476562 278.226562 324.820312 C 279.285156 325.164062 280.355469 325.484375 281.433594 325.773438 C 282.507812 326.066406 283.589844 326.332031 284.679688 326.570312 C 285.769531 326.808594 286.867188 327.019531 287.964844 327.207031 C 289.066406 327.390625 290.167969 327.550781 291.277344 327.679688 C 292.382812 327.8125 293.496094 327.914062 294.605469 327.992188 C 295.71875 328.070312 296.835938 328.121094 297.949219 328.140625 C 299.0625 328.164062 300.179688 328.160156 301.292969 328.128906 C 302.410156 328.09375 303.523438 328.035156 304.636719 327.949219 C 305.746094 327.863281 306.855469 327.75 307.960938 327.609375 C 309.070312 327.46875 310.171875 327.300781 311.269531 327.105469 C 312.367188 326.910156 313.460938 326.6875 314.546875 326.441406 C 315.636719 326.191406 316.714844 325.917969 317.789062 325.617188 C 318.863281 325.316406 319.929688 324.988281 320.988281 324.636719 C 322.046875 324.28125 323.09375 323.902344 324.132812 323.5 C 325.175781 323.09375 326.203125 322.664062 327.222656 322.210938 C 328.238281 321.753906 329.246094 321.277344 330.242188 320.773438 C 331.238281 320.265625 332.21875 319.738281 333.1875 319.1875 C 334.15625 318.636719 335.113281 318.058594 336.054688 317.460938 C 336.996094 316.863281 337.921875 316.242188 338.832031 315.597656 C 339.742188 314.953125 340.636719 314.285156 341.515625 313.597656 C 342.390625 312.910156 343.253906 312.203125 344.097656 311.472656 C 344.941406 310.742188 345.765625 309.992188 346.570312 309.222656 C 347.378906 308.453125 348.164062 307.664062 348.933594 306.855469 C 349.703125 306.042969 350.449219 305.21875 351.175781 304.371094 C 351.90625 303.527344 352.613281 302.664062 353.296875 301.785156 C 353.984375 300.90625 354.644531 300.007812 355.289062 299.097656 C 355.929688 298.183594 356.546875 297.257812 357.144531 296.3125 C 357.742188 295.371094 358.3125 294.414062 358.863281 293.445312 C 359.414062 292.472656 359.9375 291.488281 360.441406 290.492188 C 360.941406 289.496094 361.417969 288.488281 361.871094 287.46875 C 362.316406 286.445312 362.738281 285.414062 363.132812 284.371094 C 363.527344 283.328125 363.898438 282.277344 364.242188 281.214844 C 364.585938 280.152344 364.902344 279.085938 365.195312 278.007812 C 365.484375 276.929688 365.75 275.847656 365.988281 274.757812 C 366.226562 273.667969 366.4375 272.574219 366.625 271.472656 C 366.808594 270.375 366.96875 269.269531 367.097656 268.164062 C 367.230469 267.054688 367.332031 265.945312 367.410156 264.832031 C 367.484375 263.71875 367.535156 262.605469 367.558594 261.488281 C 367.582031 260.375 367.574219 259.257812 367.542969 258.144531 C 367.511719 257.027344 367.449219 255.914062 367.363281 254.804688 C 367.277344 253.691406 367.164062 252.582031 367.023438 251.476562 C 366.882812 250.371094 366.714844 249.265625 366.519531 248.167969 C 366.324219 247.070312 366.101562 245.976562 365.851562 244.890625 C 365.605469 243.800781 365.328125 242.722656 365.027344 241.648438 C 364.726562 240.574219 364.398438 239.507812 364.046875 238.449219 C 363.691406 237.390625 363.3125 236.34375 362.910156 235.304688 C 362.503906 234.265625 362.074219 233.234375 361.617188 232.21875 C 361.164062 231.199219 360.683594 230.191406 360.179688 229.195312 C 359.675781 228.203125 359.148438 227.21875 358.59375 226.25 C 358.042969 225.28125 357.464844 224.328125 356.867188 223.386719 C 356.269531 222.445312 355.644531 221.519531 355 220.609375 C 354.359375 219.699219 353.691406 218.804688 353.003906 217.925781 C 352.316406 217.046875 351.605469 216.1875 350.875 215.34375 C 350.144531 214.5 349.394531 213.675781 348.625 212.871094 C 347.855469 212.0625 347.0625 211.277344 346.253906 210.507812 C 345.445312 209.742188 344.617188 208.992188 343.773438 208.265625 C 342.925781 207.539062 342.0625 206.832031 341.183594 206.148438 C 340.304688 205.460938 339.40625 204.796875 338.496094 204.15625 C 337.582031 203.515625 336.65625 202.898438 335.710938 202.300781 C 334.769531 201.707031 333.8125 201.132812 332.839844 200.582031 C 331.871094 200.035156 330.886719 199.507812 329.890625 199.007812 C 328.894531 198.507812 327.886719 198.03125 326.863281 197.578125 L 248.398438 163.089844 Z M 319.621094 205.140625 C 320.003906 205.308594 320.363281 205.515625 320.703125 205.753906 C 321.046875 205.992188 321.359375 206.261719 321.648438 206.566406 C 321.933594 206.867188 322.191406 207.191406 322.414062 207.542969 C 322.636719 207.894531 322.824219 208.265625 322.972656 208.652344 C 323.125 209.042969 323.234375 209.441406 323.304688 209.851562 C 323.378906 210.261719 323.410156 210.675781 323.398438 211.089844 C 323.390625 211.507812 323.339844 211.917969 323.25 212.324219 C 323.160156 212.730469 323.027344 213.125 322.859375 213.507812 C 322.691406 213.886719 322.488281 214.25 322.25 214.589844 C 322.011719 214.929688 321.742188 215.246094 321.441406 215.53125 C 321.136719 215.820312 320.8125 216.074219 320.460938 216.300781 C 320.109375 216.523438 319.738281 216.710938 319.351562 216.859375 C 318.964844 217.011719 318.5625 217.121094 318.152344 217.195312 C 317.742188 217.265625 317.332031 217.296875 316.914062 217.289062 C 316.496094 217.28125 316.085938 217.230469 315.679688 217.140625 C 315.273438 217.050781 314.878906 216.921875 314.5 216.753906 L 245.835938 186.582031 L 250.96875 174.972656 Z M 319.621094 205.140625 " fill-opacity="1" fill-rule="evenodd"/><path fill="#2e6a47" d="M 221.621094 157.859375 C 189.398438 89.171875 240.09375 93.457031 249.613281 44.007812 C 282.351562 85.550781 284.421875 135.097656 228.261719 158.269531 C 223.566406 124.472656 258.09375 96.601562 252.46875 72.789062 C 253.347656 90.207031 220.699219 122.878906 221.621094 157.859375 Z M 221.621094 157.859375 " fill-opacity="1" fill-rule="evenodd"/><path fill="#2e6a47" d="M 143.144531 161.464844 C 85.664062 140.117188 117.328125 113.839844 94.808594 79.949219 C 137.222656 85.363281 166.472656 112.796875 147.222656 157.957031 C 125.382812 141.125 129.503906 105.488281 112.734375 94.945312 C 123.171875 104.476562 122.804688 141.808594 143.144531 161.464844 Z M 143.144531 161.464844 " fill-opacity="1" fill-rule="evenodd"/><path fill="#2e6a47" d="M 181.097656 236.3125 C 127.5 181.886719 177.074219 168.980469 169.542969 118.839844 C 214.550781 147.308594 233.105469 193.664062 187.609375 234.464844 C 171.832031 203.949219 195.285156 165.914062 181.957031 145.191406 C 188.570312 161.449219 168.507812 203.410156 181.097656 236.3125 Z M 181.097656 236.3125 " fill-opacity="1" fill-rule="evenodd"/><path fill="#2e6a47" d="M 202.484375 73.339844 C 203.117188 73.324219 203.746094 73.367188 204.367188 73.476562 C 204.992188 73.582031 205.597656 73.75 206.1875 73.976562 C 206.777344 74.203125 207.339844 74.484375 207.875 74.820312 C 208.410156 75.15625 208.90625 75.542969 209.363281 75.976562 C 209.820312 76.414062 210.234375 76.890625 210.597656 77.40625 C 210.960938 77.921875 211.273438 78.46875 211.53125 79.042969 C 211.789062 79.621094 211.984375 80.21875 212.125 80.835938 C 212.265625 81.449219 212.34375 82.074219 212.359375 82.707031 C 212.375 83.339844 212.332031 83.964844 212.226562 84.589844 C 212.117188 85.210938 211.953125 85.816406 211.726562 86.40625 C 211.5 86.996094 211.21875 87.558594 210.878906 88.09375 C 210.542969 88.628906 210.15625 89.125 209.722656 89.582031 C 209.285156 90.042969 208.8125 90.453125 208.296875 90.820312 C 207.78125 91.183594 207.234375 91.496094 206.65625 91.75 C 206.078125 92.007812 205.480469 92.207031 204.867188 92.347656 C 204.25 92.484375 203.625 92.5625 202.992188 92.582031 C 202.363281 92.597656 201.734375 92.550781 201.113281 92.445312 C 200.488281 92.339844 199.882812 92.171875 199.292969 91.945312 C 198.703125 91.71875 198.140625 91.4375 197.605469 91.101562 C 197.070312 90.761719 196.574219 90.378906 196.117188 89.941406 C 195.65625 89.507812 195.246094 89.03125 194.882812 88.515625 C 194.515625 88 194.207031 87.453125 193.949219 86.875 C 193.691406 86.300781 193.492188 85.703125 193.355469 85.085938 C 193.214844 84.46875 193.136719 83.84375 193.121094 83.214844 C 193.101562 82.582031 193.148438 81.953125 193.253906 81.332031 C 193.363281 80.710938 193.527344 80.101562 193.753906 79.511719 C 193.980469 78.921875 194.261719 78.359375 194.601562 77.828125 C 194.9375 77.292969 195.324219 76.796875 195.757812 76.335938 C 196.191406 75.878906 196.667969 75.46875 197.183594 75.101562 C 197.699219 74.738281 198.246094 74.425781 198.824219 74.167969 C 199.402344 73.914062 199.996094 73.714844 200.613281 73.574219 C 201.230469 73.433594 201.855469 73.355469 202.484375 73.339844 Z M 202.484375 73.339844 " fill-opacity="1" fill-rule="nonzero"/><path fill="#2e6a47" d="M 193.355469 250.445312 C 193.355469 250.054688 193.316406 249.671875 193.242188 249.292969 C 193.167969 248.910156 193.054688 248.542969 192.90625 248.183594 C 192.757812 247.824219 192.574219 247.484375 192.359375 247.164062 C 192.144531 246.839844 191.898438 246.542969 191.625 246.269531 C 191.351562 245.996094 191.054688 245.75 190.730469 245.535156 C 190.40625 245.320312 190.066406 245.136719 189.710938 244.988281 C 189.351562 244.839844 188.980469 244.730469 188.601562 244.652344 C 188.222656 244.578125 187.835938 244.539062 187.449219 244.539062 C 187.0625 244.539062 186.675781 244.578125 186.296875 244.652344 C 185.917969 244.730469 185.546875 244.84375 185.1875 244.992188 C 184.832031 245.140625 184.492188 245.320312 184.167969 245.539062 C 183.847656 245.753906 183.546875 245.996094 183.273438 246.273438 C 183 246.546875 182.753906 246.84375 182.539062 247.167969 C 182.324219 247.492188 182.144531 247.832031 181.996094 248.1875 C 181.847656 248.546875 181.734375 248.917969 181.660156 249.296875 C 181.585938 249.675781 181.546875 250.0625 181.546875 250.449219 C 181.546875 250.835938 181.585938 251.222656 181.664062 251.601562 C 181.738281 251.980469 181.851562 252.351562 182 252.710938 C 182.148438 253.066406 182.332031 253.40625 182.546875 253.730469 C 182.761719 254.050781 183.007812 254.351562 183.28125 254.625 C 183.554688 254.898438 183.855469 255.140625 184.175781 255.355469 C 184.5 255.570312 184.839844 255.753906 185.199219 255.902344 C 185.558594 256.050781 185.925781 256.160156 186.308594 256.234375 C 186.6875 256.3125 187.070312 256.347656 187.460938 256.347656 C 187.847656 256.347656 188.230469 256.308594 188.609375 256.230469 C 188.988281 256.15625 189.359375 256.042969 189.714844 255.894531 C 190.074219 255.746094 190.414062 255.5625 190.734375 255.347656 C 191.054688 255.132812 191.351562 254.886719 191.625 254.613281 C 191.902344 254.339844 192.144531 254.042969 192.359375 253.71875 C 192.574219 253.398438 192.757812 253.058594 192.90625 252.699219 C 193.054688 252.34375 193.164062 251.972656 193.242188 251.59375 C 193.316406 251.214844 193.355469 250.832031 193.355469 250.445312 Z M 193.355469 250.445312 " fill-opacity="1" fill-rule="evenodd"/><path fill="#2e6a47" d="M 178.929688 103.140625 C 178.929688 102.722656 178.886719 102.3125 178.804688 101.902344 C 178.726562 101.496094 178.605469 101.097656 178.445312 100.714844 C 178.285156 100.328125 178.089844 99.964844 177.859375 99.617188 C 177.628906 99.273438 177.367188 98.953125 177.070312 98.65625 C 176.777344 98.363281 176.457031 98.101562 176.109375 97.867188 C 175.765625 97.636719 175.398438 97.441406 175.015625 97.28125 C 174.628906 97.125 174.234375 97.003906 173.824219 96.921875 C 173.417969 96.839844 173.003906 96.800781 172.589844 96.800781 C 172.171875 96.800781 171.761719 96.839844 171.351562 96.921875 C 170.945312 97.003906 170.546875 97.125 170.164062 97.28125 C 169.777344 97.441406 169.414062 97.636719 169.066406 97.867188 C 168.722656 98.101562 168.402344 98.363281 168.105469 98.65625 C 167.8125 98.953125 167.550781 99.273438 167.316406 99.617188 C 167.085938 99.964844 166.890625 100.328125 166.730469 100.714844 C 166.574219 101.097656 166.453125 101.496094 166.371094 101.902344 C 166.289062 102.3125 166.25 102.722656 166.25 103.140625 C 166.25 103.554688 166.289062 103.96875 166.371094 104.375 C 166.453125 104.785156 166.574219 105.179688 166.730469 105.566406 C 166.890625 105.949219 167.085938 106.316406 167.316406 106.660156 C 167.550781 107.007812 167.8125 107.328125 168.105469 107.621094 C 168.402344 107.917969 168.722656 108.179688 169.066406 108.410156 C 169.414062 108.640625 169.777344 108.835938 170.164062 108.996094 C 170.546875 109.15625 170.945312 109.277344 171.351562 109.355469 C 171.761719 109.4375 172.171875 109.480469 172.589844 109.480469 C 173.003906 109.476562 173.417969 109.4375 173.824219 109.355469 C 174.230469 109.273438 174.628906 109.152344 175.011719 108.992188 C 175.394531 108.832031 175.761719 108.636719 176.105469 108.40625 C 176.453125 108.175781 176.773438 107.910156 177.066406 107.617188 C 177.359375 107.324219 177.625 107.003906 177.855469 106.65625 C 178.085938 106.3125 178.28125 105.945312 178.441406 105.5625 C 178.601562 105.179688 178.722656 104.78125 178.804688 104.375 C 178.886719 103.96875 178.925781 103.554688 178.929688 103.140625 Z M 178.929688 103.140625 " fill-opacity="1" fill-rule="evenodd"/><path fill="#2e6a47" d="M 236.703125 174.496094 C 236.703125 173.976562 236.652344 173.464844 236.550781 172.957031 C 236.449219 172.445312 236.300781 171.953125 236.101562 171.472656 C 235.902344 170.996094 235.660156 170.539062 235.371094 170.109375 C 235.085938 169.675781 234.757812 169.277344 234.390625 168.910156 C 234.023438 168.542969 233.625 168.21875 233.191406 167.929688 C 232.761719 167.640625 232.304688 167.398438 231.828125 167.199219 C 231.347656 167 230.855469 166.851562 230.34375 166.75 C 229.835938 166.648438 229.324219 166.597656 228.804688 166.597656 C 228.285156 166.597656 227.773438 166.648438 227.261719 166.75 C 226.753906 166.851562 226.261719 167 225.78125 167.199219 C 225.300781 167.398438 224.847656 167.640625 224.414062 167.929688 C 223.984375 168.21875 223.585938 168.542969 223.21875 168.910156 C 222.851562 169.277344 222.523438 169.675781 222.234375 170.109375 C 221.949219 170.539062 221.703125 170.996094 221.507812 171.472656 C 221.308594 171.953125 221.15625 172.445312 221.058594 172.957031 C 220.957031 173.464844 220.90625 173.976562 220.90625 174.496094 C 220.90625 175.015625 220.957031 175.527344 221.058594 176.039062 C 221.15625 176.546875 221.308594 177.039062 221.507812 177.519531 C 221.703125 178 221.949219 178.453125 222.234375 178.886719 C 222.523438 179.316406 222.851562 179.714844 223.21875 180.082031 C 223.585938 180.449219 223.984375 180.777344 224.414062 181.066406 C 224.847656 181.351562 225.300781 181.597656 225.78125 181.792969 C 226.261719 181.992188 226.753906 182.144531 227.261719 182.246094 C 227.773438 182.34375 228.285156 182.394531 228.804688 182.394531 C 229.324219 182.394531 229.835938 182.34375 230.34375 182.242188 C 230.851562 182.140625 231.347656 181.988281 231.824219 181.789062 C 232.304688 181.589844 232.757812 181.347656 233.1875 181.058594 C 233.621094 180.773438 234.019531 180.445312 234.386719 180.078125 C 234.75 179.710938 235.078125 179.3125 235.367188 178.882812 C 235.65625 178.449219 235.898438 177.996094 236.097656 177.515625 C 236.296875 177.039062 236.445312 176.546875 236.550781 176.035156 C 236.652344 175.527344 236.703125 175.015625 236.703125 174.496094 Z M 236.703125 174.496094 " fill-opacity="1" fill-rule="evenodd"/><path fill="#2e6a47" d="M 149.6875 176.820312 C 149.6875 176.488281 149.65625 176.164062 149.59375 175.835938 C 149.527344 175.511719 149.433594 175.199219 149.308594 174.890625 C 149.179688 174.585938 149.027344 174.296875 148.84375 174.019531 C 148.660156 173.746094 148.449219 173.492188 148.21875 173.257812 C 147.984375 173.023438 147.730469 172.8125 147.453125 172.628906 C 147.179688 172.445312 146.890625 172.289062 146.582031 172.164062 C 146.277344 172.035156 145.964844 171.941406 145.640625 171.875 C 145.316406 171.8125 144.988281 171.777344 144.65625 171.777344 C 144.324219 171.777344 144 171.8125 143.671875 171.875 C 143.347656 171.941406 143.035156 172.035156 142.730469 172.160156 C 142.421875 172.289062 142.132812 172.441406 141.859375 172.625 C 141.582031 172.808594 141.328125 173.019531 141.09375 173.253906 C 140.859375 173.488281 140.652344 173.742188 140.46875 174.015625 C 140.285156 174.292969 140.128906 174.582031 140.003906 174.886719 C 139.875 175.191406 139.78125 175.507812 139.714844 175.832031 C 139.652344 176.15625 139.621094 176.484375 139.621094 176.816406 C 139.621094 177.144531 139.652344 177.472656 139.71875 177.796875 C 139.78125 178.121094 139.878906 178.4375 140.003906 178.742188 C 140.132812 179.046875 140.289062 179.339844 140.472656 179.613281 C 140.65625 179.886719 140.863281 180.140625 141.097656 180.375 C 141.332031 180.609375 141.585938 180.816406 141.863281 181 C 142.136719 181.183594 142.429688 181.339844 142.734375 181.464844 C 143.039062 181.589844 143.355469 181.6875 143.679688 181.75 C 144.003906 181.816406 144.332031 181.847656 144.660156 181.847656 C 144.992188 181.84375 145.320312 181.8125 145.640625 181.746094 C 145.964844 181.683594 146.277344 181.585938 146.582031 181.460938 C 146.886719 181.335938 147.179688 181.179688 147.453125 180.996094 C 147.726562 180.8125 147.980469 180.605469 148.214844 180.371094 C 148.445312 180.136719 148.65625 179.882812 148.839844 179.609375 C 149.019531 179.335938 149.175781 179.046875 149.300781 178.742188 C 149.429688 178.4375 149.523438 178.125 149.589844 177.800781 C 149.652344 177.476562 149.6875 177.152344 149.6875 176.820312 Z M 149.6875 176.820312 " fill-opacity="1" fill-rule="evenodd"/></svg>